# xmcd CD database file
#
# Track frame offsets:
#	150
#	15932
#	33882
#	52560
#	70250
#	87557
#	103850
#	119632
#	132987
#	144890
#	162092
#	196725
#
# Disc length: 2799 seconds
#
# Revision: 0
# Processed by: cddbd v1.5.1PL2 Copyright (c) Steve Scherf et al.
# Submitted via: CDex 1.51
#
DISCID=940aed0c
DTITLE=Sara davis - tundra
DYEAR=1994
DGENRE=Rock
TTITLE0=keep walking
TTITLE1=tiny pieces
TTITLE2=tundra
TTITLE3=banyan days
TTITLE4=deep blue water
TTITLE5=taxis and trains
TTITLE6=when i'm falling
TTITLE7=looking for another bridge
TTITLE8=day,ba day, by day
TTITLE9=walking white flag
TTITLE10=your keys,your coat, your hat
TTITLE11=saying goodbye to louis
EXTD=YEAR: 1994
EXTT0=
EXTT1=
EXTT2=
EXTT3=
EXTT4=
EXTT5=
EXTT6=
EXTT7=
EXTT8=
EXTT9=
EXTT10=
EXTT11=
PLAYORDER=
